<?xml version="1.0" encoding="UTF-8"?>
<svg id="Lag_2" data-name="Lag 2" xmlns="http://www.w3.org/2000/svg" viewBox="0 0 350.96 208.98">
  <defs>
    <style>
      .cls-1 {
        fill: #fff;
      }

      .cls-2 {
        fill: #e62e31;
      }

      .cls-3 {
        fill: #575756;
      }
    </style>
  </defs>
  <g id="Lag_1-2" data-name="Lag 1">
    <g>
      <path class="cls-3" d="M5.59,208.98l-5.59-21.96,14.4-3.54,2.22,11.1,10.04-2.47.58-6.83L.16,176.49l4.11-30.11,26.65-6.42,11.6,12.26-1.65,18.84-12.83-1.56-1.81-10.2-9.54,1.97-.99,8.64,27.06,9.54-4.77,24.84-32.41,4.69Z"/>
      <path class="cls-3" d="M55.56,206.84l-5.26-7.24,5.92-36.52-9.13,2.06-4.85-9.54,2.47-14.89,35.78,2.55,2.22,19.33-11.76.25-.49,44.09-14.89-.08Z"/>
      <path class="cls-3" d="M98.95,207.58l-14.07-10.12-2.71-34.3,8.97-20.07,22.29-2.71,12.17,23.36v27.8l-11.11,15.71-15.55.33ZM111.62,187.43v-17.44l-4.94-10.2-7.24,2.3-2.3,24.35,7.57,7.24,6.91-6.25Z"/>
      <path class="cls-3" d="M154.76,207.25l-11.43-27.39,2.55,27.15-18.02-.49-1.32-10.86,3.62-4.61-5.1-45.16,17.52-4.44,14.56,35.78-2.22-36.44h16.7l-2.14,66.47h-14.72Z"/>
      <path class="cls-3" d="M176.68,207.75l-5.59-46.64,5.76-21.06,11.85,3.95,20.65-4.61,2.22,18.1-22.62,1.97-1.07,8.97,21.22-2.71,1.97,13-23.2,2.06v7.73l22.87-2.63,2.3,19.33-36.36,2.55Z"/>
    </g>
    <path class="cls-2" d="M284.99,189.94c-2.03,0-4.23-.07-6.63-.19-2.4-.13-5.25-.32-8.53-.57-1.77-.25-3.41-.38-4.93-.38h-14.41c-.76-.25-1.77-.38-3.03-.38h-7.96c-7.84,0-13.27-1.45-16.3-4.36-3.03-2.9-4.55-8.02-4.55-15.35,0-.5.12-.88.38-1.14.25-.25.38-.76.38-1.52v-3.98c0-.63.12-1.2.38-1.71l1.52-8.72c0-.5-.13-1.58-.38-3.22-.25-1.64-.63-3.73-1.14-6.26l-.38-5.69c0-1.26-.13-2.14-.38-2.65-.25-.25-.38-.63-.38-1.14h-35.26c-8.6.76-14.66-.5-18.2-3.79-1.77-1.01-2.65-3.28-2.65-6.82v-42.46c-.25-2.02-.44-4.42-.57-7.2-.13-2.78-.19-5.43-.19-7.96,0-2.02,1.2-4.11,3.6-6.26,2.4-2.14,4.61-3.22,6.63-3.22h46.63V21.61c0-9.1,1.52-15.17,4.55-18.2,1.01-1.77,3.28-2.65,6.82-2.65,2.52,0,5.05-.06,7.58-.19,2.52-.12,5.05-.31,7.58-.57h41.71c2.28,0,4.55,1.14,6.82,3.41,2.28,2.28,3.41,4.55,3.41,6.82v45.5c10.36.76,20.6,1.14,30.71,1.14,8.59,0,14.6.76,18.01,2.28s5.12,4.17,5.12,7.96l-.38,24.64c-.25.76-.38,1.65-.38,2.65v17.44c0,4.55-.19,7.9-.57,10.05-.38,2.15-1.2,3.86-2.46,5.12-2.53,3.79-7.84,5.69-15.92,5.69h-35.26c0,1.77-.07,4.11-.19,7.01-.13,2.91-.32,6.26-.57,10.05v16.68c0,15.67-3.41,23.51-10.24,23.51Z"/>
    <g>
      <path class="cls-1" d="M230.09,95.07v11.43h-3.71v10.31h-12.89v-27.55c0-5.33,1.45-9.47,4.36-12.43,2.91-2.95,7-4.43,12.27-4.43s8.83,1.34,11.27,4.02,3.65,6.81,3.65,12.39v27.99h-12.89v-27.14c0-1.69-.2-2.87-.6-3.52-.4-.66-1.12-.98-2.16-.98-2.01,0-3.02,1.5-3.02,4.51v5.4h3.71Z"/>
      <path class="cls-1" d="M261.19,73.49v43.32h-12.89v-43.32h12.89Z"/>
      <path class="cls-1" d="M278.19,85.93v30.88h-12.89v-43.32h16.79c7.36,0,13.13,1.67,17.3,5.01,4.95,4,7.43,9.43,7.43,16.28s-2.12,11.91-6.35,16.06c-4.23,4.15-9.68,6.22-16.34,6.22-.78,0-2.06-.04-3.84-.13v-12.73h2.06c7.51,0,11.27-3.14,11.27-9.43,0-5.9-3.69-8.85-11.08-8.85h-4.35Z"/>
    </g>
  </g>
</svg>